<svg id="eT9gQw4jdmG1" xmlns="http://www.w3.org/2000/svg" xmlns:xlink="http://www.w3.org/1999/xlink" viewBox="0 0 300 300" shape-rendering="geometricPrecision" text-rendering="geometricPrecision" project-id="4798e6ae3d2243de96e85e318ba618de" export-id="06860086d7f14b558571fc3b1e9941e9" cached="false"><g transform="matrix(.335861-.036277 0.032965 0.305196 73.912777 76.355809)"><path d="M266.033,32.42l-85.238,85.238v19.799L285.832,32.42h-19.799Zm41.528,3.728L184.523,159.186l168.291,168.29L475.852,204.44L307.56,36.15l.001-.002Zm172.02,190.02L374.542,331.205h19.799l85.238-85.238v-19.799h.002ZM239.678,239.795l-9.9,9.9l32.527,32.528l9.9-9.9-32.527-32.528Zm-22.627,22.627l-23.528,23.527h47.055l-23.527-23.527Zm-41.528,41.527l-27.255,27.256h65.054l27.256-27.256h-65.055Zm-45.255,45.256l-27.254,27.254h65.054l27.254-27.254h-65.054Zm-27.254,45.254l23.527,23.527l23.527-23.527h-47.054Zm-21.729,3.728l-9.898,9.899l32.527,32.527l9.898-9.898-32.527-32.527v-.001ZM42.518,417.086l-7.504,22.512l37.388,37.388l22.512-7.504v-12.414L54.93,417.086h-12.412Z" fill="#28866c"/></g><g transform="matrix(.773565 0.645412-.572505 0.686182 190.50289 101.521788)"><g><path d="M16,27h-9c-.276,0-.5.224-.5.5s.224.5.5.5h9c.276,0,.5-.224.5-.5s-.224-.5-.5-.5Z" fill="#f3e854" stroke="#000" stroke-width="0.00022"/><path d="M16.5,29.5c0-.276-.224-.5-.5-.5h-9c-.276,0-.5.224-.5.5s.224.5.5.5h9c.276,0,.5-.224.5-.5Z" fill="#f3e854" stroke="#000" stroke-width="0.00022"/><path d="M9,31c-.276,0-.5.224-.5.5s.224.5.5.5h5c.276,0,.5-.224.5-.5s-.224-.5-.5-.5h-5Z" fill="#f3e854" stroke="#000" stroke-width="0.00022"/><path d="M17,25.5v-.611c0-2.534.926-5.049,2.677-7.274C21.197,15.685,22,13.37,22,10.918C22,4.897,17.065,0,11,0c-.415,0-.838.023-1.255.069-4.872.536-8.92,4.41-9.625,9.212-.495,3.374.566,6.709,2.913,9.15C4.946,20.423,6,22.897,6,25.398v.102c0,.276.224.5.5.5h10c.276,0,.5-.224.5-.5ZM9,14h-1.75c-.965,0-1.75-.893-1.75-1.84s.785-1.779,1.75-1.779s1.75.709,1.75,1.656L9,14Zm3,11h-2v-10h2v10Zm4,0h-3v-10h1.75c1.517,0,2.75-1.341,2.75-2.84s-1.233-2.779-2.75-2.779-2.75,1.157-2.75,2.656L12,14h-2v-1.963c0-1.499-1.233-2.718-2.75-2.718s-2.75,1.342-2.75,2.841s1.233,2.84,2.75,2.84L9,15v10h-2.008c-.105-2.623-1.246-5.188-3.238-7.262C1.623,15.521,0.66,12.492,1.11,9.426C1.75,5.067,5.428,1.55,9.854,1.063C15.898,0.391,21,5.075,21,10.917c0,2.226-.729,4.327-2.108,6.078C17,19.399,16,22.128,16,24.889v.111ZM13,14v-1.963c0-.947.785-1.718,1.75-1.718s1.75.893,1.75,1.84-.785,1.841-1.75,1.841L13,14Z" fill="#f3e854" stroke="#000" stroke-width="0.00022"/></g></g></svg>
